<?xml version="1.0" encoding="UTF-8" standalone="no"?>
<!-- Created with Inkscape (http://www.inkscape.org/) -->

<svg
   xmlns:dc="http://purl.org/dc/elements/1.1/"
   xmlns:cc="http://creativecommons.org/ns#"
   xmlns:rdf="http://www.w3.org/1999/02/22-rdf-syntax-ns#"
   xmlns:svg="http://www.w3.org/2000/svg"
   xmlns="http://www.w3.org/2000/svg"
   xmlns:sodipodi="http://sodipodi.sourceforge.net/DTD/sodipodi-0.dtd"
   xmlns:inkscape="http://www.inkscape.org/namespaces/inkscape"
   width="581.10522"
   height="255.27808"
   viewBox="0 0 581.10524 255.27806"
   id="svg2"
   version="1.1"
   inkscape:version="0.91 r13725"
   sodipodi:docname="logo-stacked.svg"
   inkscape:export-filename="D:\GitHub\WUPHF\design\stack-large.png"
   inkscape:export-xdpi="198.24292"
   inkscape:export-ydpi="198.24292">
  <defs
     id="defs4" />
  <sodipodi:namedview
     id="base"
     pagecolor="#ffffff"
     bordercolor="#666666"
     borderopacity="1.0"
     inkscape:pageopacity="0.0"
     inkscape:pageshadow="2"
     inkscape:zoom="1.4142136"
     inkscape:cx="291.02661"
     inkscape:cy="181.06086"
     inkscape:document-units="px"
     inkscape:current-layer="g4161"
     showgrid="false"
     units="px"
     showguides="true"
     inkscape:guide-bbox="true"
     inkscape:object-nodes="true"
     inkscape:window-width="2048"
     inkscape:window-height="1089"
     inkscape:window-x="-8"
     inkscape:window-y="-8"
     inkscape:window-maximized="1"
     inkscape:snap-bbox="false"
     inkscape:bbox-nodes="true"
     inkscape:object-paths="true"
     inkscape:snap-bbox-edge-midpoints="false"
     inkscape:snap-smooth-nodes="true"
     inkscape:snap-nodes="true"
     inkscape:snap-page="false"
     fit-margin-top="0"
     fit-margin-left="0"
     fit-margin-right="0"
     fit-margin-bottom="0" />
  <metadata
     id="metadata7">
    <rdf:RDF>
      <cc:Work
         rdf:about="">
        <dc:format>image/svg+xml</dc:format>
        <dc:type
           rdf:resource="http://purl.org/dc/dcmitype/StillImage" />
        <dc:title></dc:title>
      </cc:Work>
    </rdf:RDF>
  </metadata>
  <g
     inkscape:label="Layer 1"
     inkscape:groupmode="layer"
     id="layer1"
     transform="translate(2.0271706e-6,-852.3622)">
    <g
       style="font-style:normal;font-weight:normal;font-size:40px;line-height:125%;font-family:sans-serif;text-align:center;letter-spacing:0px;word-spacing:0px;text-anchor:middle;fill:#f57025;fill-opacity:1;stroke:none;stroke-width:1px;stroke-linecap:butt;stroke-linejoin:miter;stroke-opacity:1"
       id="text4136"
       transform="matrix(0.95,0,0,1,1.694144,0)">
      <g
         id="g4161"
         transform="translate(15.831375,-19.249994)">
        <g
           transform="matrix(1.2440054,0,0,1.2440054,-586.94249,-79.993842)"
           id="g4203">
          <path
             inkscape:connector-curvature="0"
             id="path4201"
             d="m 600.50096,929.71851 c -17.09141,-8e-5 -30.94534,9.05303 -30.94544,20.22068 9e-5,11.16766 13.85403,20.22076 30.94544,20.22068 5.62385,-0.007 11.1389,-1.01581 15.95141,-2.91717 l 14.99594,2.91717 -6.7109,-7.68206 c 4.33376,-3.56664 6.69902,-7.98456 6.7109,-12.53862 -9e-5,-11.16752 -13.85613,-20.22056 -30.94735,-20.22068 z m 0,3.12207 c 12.79029,-1e-5 23.17575,7.71774 23.15991,17.09861 -0.0156,9.38087 -10.35743,17.1221 -23.15991,17.09681 -12.80246,-0.025 -23.15799,-7.65414 -23.15799,-17.09681 0,-9.44266 10.36774,-17.09862 23.15799,-17.09861 z"
             style="fill:#524a93;fill-opacity:1;fill-rule:evenodd;stroke:none;stroke-width:1.02597833;stroke-linecap:butt;stroke-linejoin:miter;stroke-miterlimit:4;stroke-dasharray:none;stroke-opacity:1" />
        </g>
        <path
           inkscape:connector-curvature="0"
           id="path4151"
           style="font-style:normal;font-variant:normal;font-weight:900;font-stretch:normal;font-size:180px;line-height:125%;font-family:'Segoe UI';-inkscape-font-specification:'Segoe UI, Heavy';text-align:center;writing-mode:lr-tb;text-anchor:middle;fill:#f57025;fill-opacity:1"
           d="m 321.81076,1126.8897 0,-69.082 q 0,-9.7559 0.61523,-21.4453 l 0.26367,-5.8008 -1.05469,0 q -2.8125,14.8535 -4.30664,20.5664 l -18.54492,75.7617 -35.68359,0 -19.42383,-74.8828 q -0.79102,-2.8125 -4.13086,-21.4453 l -1.05469,0 q 1.23047,29.5313 1.23047,36.9141 l 0,59.414 -33.31055,0 0,-126.0351 56.86524,0 17.31445,68.4668 q 0.61524,2.1094 1.58203,8.6133 1.05469,6.416 1.31836,9.9316 l 0.52735,0 q 0.96679,-7.998 3.07617,-18.8965 l 16.17187,-68.1152 55.98633,0 0,126.0351 -37.4414,0 z" />
        <path
           inkscape:connector-curvature="0"
           id="path4153"
           style="font-style:normal;font-variant:normal;font-weight:900;font-stretch:normal;font-size:180px;line-height:125%;font-family:'Segoe UI';-inkscape-font-specification:'Segoe UI, Heavy';text-align:center;writing-mode:lr-tb;text-anchor:middle;fill:#f57025;fill-opacity:1"
           d="m 363.74638,1126.8897 0,-126.0351 78.48633,0 0,29.707 -40.51758,0 0,18.3692 38.05664,0 0,29.707 -38.05664,0 0,18.5449 43.41797,0 0,29.707 -81.38672,0 z" />
      </g>
      <g
         id="g4167"
         transform="translate(-3.3974803e-7,3.4413851e-5)">
        <path
           sodipodi:nodetypes="sczssccszcccs"
           inkscape:connector-curvature="0"
           id="path4143"
           style="font-style:normal;font-variant:normal;font-weight:900;font-stretch:normal;font-size:180px;line-height:125%;font-family:'Segoe UI';-inkscape-font-specification:'Segoe UI, Heavy';text-align:center;writing-mode:lr-tb;text-anchor:middle;fill:#f57025;fill-opacity:1"
           d="m 294.98787,919.13168 c 0,20.21485 -4.62891,35.24415 -13.88672,45.08789 -9.19921,9.78516 -20.63168,14.17827 -42.62695,14.17774 -21.99527,-5.3e-4 -31.58422,-4.3656 -40.86914,-14.17774 -9.28939,-9.81686 -13.88672,-24.63866 -13.88672,-44.38476 l 0,-67.47265 38.14453,0 0,74.3789 c 0,10.30793 4.38353,19.69078 17.49024,19.72461 13.10671,0.0338 17.40234,-9.41668 17.40234,-18.8457 l 0,-75.25781 38.23242,0 z" />
        <path
           inkscape:connector-curvature="0"
           id="path4145"
           style="font-style:normal;font-variant:normal;font-weight:900;font-stretch:normal;font-size:180px;line-height:125%;font-family:'Segoe UI';-inkscape-font-specification:'Segoe UI, Heavy';text-align:center;writing-mode:lr-tb;text-anchor:middle;fill:#f57025;fill-opacity:1"
           d="m 403.29818,893.93442 q 0,12.91992 -6.5918,22.93946 -6.50391,10.01953 -18.63281,15.55664 -12.12891,5.44922 -28.21289,5.44922 l -11.60156,0 0,40.51757 -37.96875,0 0,-126.03515 51.67968,0 q 26.63086,0 38.93555,10.10742 12.39258,10.10742 12.39258,31.46484 z m -40.16602,1.31836 q 0,-7.73437 -4.48242,-11.68945 -4.48242,-3.95508 -13.18359,-3.95508 l -7.20703,0 0,31.11328 8.52539,0 q 16.34765,0 16.34765,-15.46875 z" />
        <path
           inkscape:connector-curvature="0"
           id="path4147"
           style="font-style:normal;font-variant:normal;font-weight:900;font-stretch:normal;font-size:180px;line-height:125%;font-family:'Segoe UI';-inkscape-font-specification:'Segoe UI, Heavy';text-align:center;writing-mode:lr-tb;text-anchor:middle;fill:#f57025;fill-opacity:1"
           d="m 488.5928,978.39731 0,-47.02148 -43.59375,0 0,47.02148 -37.96875,0 0,-126.03515 37.96875,0 0,46.66992 43.59375,0 0,-46.66992 37.96875,0 0,126.03515 -37.96875,0 z" />
        <path
           inkscape:connector-curvature="0"
           id="path4149"
           style="font-style:normal;font-variant:normal;font-weight:900;font-stretch:normal;font-size:180px;line-height:125%;font-family:'Segoe UI';-inkscape-font-specification:'Segoe UI, Heavy';text-align:center;writing-mode:lr-tb;text-anchor:middle;fill:#f57025;fill-opacity:1"
           d="m 568.8615,882.06919 0,22.67578 37.4414,0 0,29.70703 -37.4414,0 0,43.94531 -37.96876,0 0,-126.03515 79.01368,0 0,29.70703 -41.04492,0 z" />
        <g
           id="text4151"
           style="font-style:normal;font-weight:normal;font-size:41.03913498px;line-height:125%;font-family:sans-serif;text-align:center;letter-spacing:0px;word-spacing:0px;text-anchor:middle;fill:#f57025;fill-opacity:1;stroke:none;stroke-width:1px;stroke-linecap:butt;stroke-linejoin:miter;stroke-opacity:1"
           transform="matrix(1.0259784,0,0,0.97467939,452.22316,103.31693)">
          <path
             sodipodi:nodetypes="ccccccccccccccccccccccccccc"
             inkscape:connector-curvature="0"
             id="path4156"
             style="font-style:normal;font-variant:normal;font-weight:900;font-stretch:normal;font-size:184.67610168px;line-height:125%;font-family:'Segoe UI';-inkscape-font-specification:'Segoe UI, Heavy';text-align:center;writing-mode:lr-tb;text-anchor:middle;fill:#f57025;fill-opacity:1"
             d="m -287.16722,897.81357 -44.46774,0 -17.9446,-73.67206 c -0.54104,-2.10406 -1.1422,-7.33415 -1.80348,-15.69026 l -0.36069,0 c -0.90174,7.39426 -1.77342,12.62435 -2.61505,15.69026 l -19.38738,73.67206 -43.8245,0 -24.94009,-129.30934 36.84304,0 10.82086,76.10675 c 0.18035,0.96185 0.45088,3.75724 0.81157,8.38617 l 0.54104,7.48443 0.54105,0 c 0.12023,-1.56301 0.48092,-4.20811 1.08208,-7.9353 0.60116,-3.7873 1.17226,-6.61275 1.71331,-8.47634 l 19.92842,-75.56571 42.4719,0 16.59199,76.64779 1.17226,7.66478 0.90174,7.48443 0.3607,0 0.27052,-3.15608 1.17226,-12.53417 11.27173,-76.10675 34.31017,0 z" />
        </g>
      </g>
    </g>
  </g>
</svg>
